<?xml version="1.0"?>
<svg xmlns="http://www.w3.org/2000/svg" height="512px" viewBox="0 -31 512 512" width="512px"><path d="m256 210c-24.8125 0-45 20.1875-45 45s20.1875 45 45 45 45-20.1875 45-45-20.1875-45-45-45zm0 0" fill="#fff"/><path d="m256 150c-57.890625 0-105 47.109375-105 105s47.109375 105 105 105 105-47.109375 105-105-47.109375-105-105-105zm0 180c-41.351562 0-75-33.648438-75-75s33.648438-75 75-75 75 33.648438 75 75-33.648438 75-75 75zm0 0" fill="#fff"/><path d="m256 0c-60.953125 0-117.21875 33.105469-146.820312 86.394531-78.929688 150.839844-109.179688 172.242188-109.179688 229.46875 0 73.960938 61.175781 134.136719 135.136719 134.136719h241.726562c73.960938 0 135.136719-60.175781 135.136719-134.136719 0-57.164062-30.339844-78.804687-109.179688-229.46875-29.601562-53.289062-85.867187-86.394531-146.820312-86.394531zm0 390c-74.441406 0-135-60.558594-135-135s60.558594-135 135-135 135 60.558594 135 135-60.558594 135-135 135zm0 0" fill="#fff"/></svg>
