<?xml version="1.0" encoding="iso-8859-1"?>
<!-- Generator: Adobe Illustrator 19.0.0, SVG Export Plug-In . SVG Version: 6.00 Build 0)  -->
<svg xmlns="http://www.w3.org/2000/svg" xmlns:xlink="http://www.w3.org/1999/xlink" version="1.1" id="Capa_1" x="0px" y="0px" viewBox="0 0 512 512" style="enable-background:new 0 0 512 512;" xml:space="preserve" width="512px" height="512px">
<g>
	<g>
		<path d="M403.505,14.385C398.373,5.512,388.819,0,378.576,0h-107.06v126.637h196.913L403.505,14.385z" fill="#fff"/>
	</g>
</g>
<g>
	<g>
		<path d="M133.435,0c-10.264,0-19.817,5.522-24.949,14.415L43.801,126.637h197.703V0H133.435z" fill="#fff"/>
	</g>
</g>
<g>
	<g>
		<path d="M316.908,345.398c-8.913,0-13.369,4.322-13.369,12.965v38.355c0,8.643,4.456,12.965,13.369,12.965    c9.091,0,13.641-4.322,13.641-12.965v-38.355C330.548,349.72,325.998,345.398,316.908,345.398z" fill="#fff"/>
	</g>
</g>
<g>
	<g>
		<path d="M194.822,258.426c-8.913,0-13.37,4.322-13.37,12.965v38.354c0,8.643,4.457,12.965,13.37,12.965    c9.09,0,13.64-4.322,13.64-12.965v-38.354C208.462,262.748,203.913,258.426,194.822,258.426z" fill="#fff"/>
	</g>
</g>
<g>
	<g>
		<path d="M33.057,156.648v320.069C33.057,496.174,48.893,512,68.35,512H443.65c19.457,0,35.293-15.826,35.293-35.283V156.648    H33.057z M166.133,337.43c-7.074-5.849-10.61-15.079-10.61-27.685v-38.354c0-12.603,3.536-21.831,10.61-27.685    c7.074-5.85,16.636-8.778,28.69-8.778c11.956,0,21.54,2.929,28.754,8.778c7.208,5.854,10.817,15.083,10.817,27.685v38.354    c0,12.607-3.608,21.836-10.817,27.685c-7.213,5.854-16.797,8.778-28.754,8.778C182.769,346.208,173.206,343.283,166.133,337.43z     M210.796,444.795c-4.331,0-7.939-1.486-10.825-4.457c-2.887-2.971-4.331-6.258-4.331-9.858c0-1.621,0.438-3.33,1.326-5.132    l93.122-194.743c2.118-4.499,5.832-6.753,11.142-6.753c3.962,0,7.613,1.352,10.947,4.052c3.333,2.7,5.001,6.123,5.001,10.264    c0,1.983-0.354,3.692-1.06,5.132l-93.383,194.742C220.609,442.541,216.628,444.795,210.796,444.795z M356.477,396.718    c0,12.606-3.608,21.835-10.817,27.685c-7.212,5.854-16.796,8.777-28.753,8.777c-12.053,0-21.616-2.924-28.69-8.777    c-7.073-5.85-10.61-15.08-10.61-27.685v-38.355c0-12.602,3.537-21.831,10.61-27.685c7.073-5.849,16.636-8.777,28.69-8.777    c11.956,0,21.541,2.929,28.753,8.777c7.209,5.854,10.817,15.084,10.817,27.685V396.718z" fill="#fff"/>
	</g>
</g>
<g>
</g>
<g>
</g>
<g>
</g>
<g>
</g>
<g>
</g>
<g>
</g>
<g>
</g>
<g>
</g>
<g>
</g>
<g>
</g>
<g>
</g>
<g>
</g>
<g>
</g>
<g>
</g>
<g>
</g>
</svg>
